<?xml version="1.0" encoding="UTF-8"?>
<svg id="_レイヤー_1" data-name="レイヤー 1" xmlns="http://www.w3.org/2000/svg" viewBox="0 0 120 120">
  <defs>
    <style>
      .cls-1 {
        fill: #96a0a8;
      }

      .cls-2 {
        fill: #4f93c7;
      }

      .cls-3 {
        fill: #98a2aa;
      }

      .cls-4 {
        fill: #2e6395;
      }

      .cls-5 {
        fill: #4e93c6;
      }

      .cls-6 {
        fill: #ccd3d7;
      }

      .cls-7 {
        fill: #fff;
      }

      .cls-8 {
        fill: #ccd2d7;
      }

      .cls-9 {
        fill: #2e6495;
      }

      .cls-10 {
        fill: #5191c6;
      }

      .cls-11 {
        fill: #cdd3d7;
      }

      .cls-12 {
        fill: #4f92c7;
      }

      .cls-13 {
        fill: #ccd3d6;
      }
    </style>
  </defs>
  <g id="_生成オブジェクト" data-name="生成オブジェクト">
    <path class="cls-7" d="M61.87,29.3c-.72.69-1.3,1.46-1.83,2.46-.67-1.07-1.23-1.89-2.04-2.61-.94-.83-2.01-1.37-3.28-1.79l-28.01-9.19c-2.08-.68-4.42.4-5.83,1.69-1.57,1.42-2.26,3.5-2.19,5.69-1.59.75-2.96,1.75-3.82,3.34-4.43-.61-7.75,2.69-7.75,6.99l.02,54.93c0,3.45,2.34,6.86,6.04,6.87l38.94.09c1.41,2.23,3.57,3.57,6.06,4.04,3.82.72,7.65-.81,9.75-4.04l38.7-.06c3.78,0,6.31-3.3,6.31-6.9l-.09-55.75c0-3.96-3.89-6.73-7.59-6.13-1.03-1.52-2.22-2.62-3.93-3.37.07-2.13-.55-4.21-2.06-5.62s-3.79-2.46-5.95-1.75l-28.63,9.39c-1.15.38-2.05,1.01-2.8,1.73Z"/>
    <path class="cls-9" d="M58,29.14l-2.55.84-28.28-9.39c-1.45-.48-2.86-.49-4.15.4-.92.63-2.04,1.9-2.04,3.37l-.07,52.06c0,3.17,1.5,6.02,4.61,7.04l30.34,9.97c1.16.38,2.19.73,3.07,1.38l1.06.78,1.07-.77c.79-.57,1.7-.93,2.75-1.28l29.93-9.77c2.71-.88,5.29-3.06,5.29-6.13l-.04-53.48c0-2.57-3.09-4.51-5.3-3.78l-28.84,9.44-2.22-.57-.76.03c.75-.72,1.65-1.35,2.8-1.73l28.63-9.39c2.16-.71,4.51.4,5.95,1.75s2.13,3.49,2.06,5.62c1.7.75,2.9,1.85,3.93,3.37,3.7-.6,7.59,2.17,7.59,6.13l.09,55.75c0,3.6-2.53,6.9-6.31,6.9l-38.7.06c-2.09,3.24-5.92,4.76-9.75,4.04-2.49-.47-4.65-1.8-6.06-4.04l-38.94-.09c-3.7,0-6.04-3.43-6.04-6.87l-.02-54.93c0-4.3,3.32-7.6,7.75-6.99.86-1.59,2.23-2.59,3.82-3.34-.07-2.19.62-4.26,2.19-5.69,1.41-1.28,3.75-2.37,5.83-1.69l28.01,9.19c1.27.42,2.34.96,3.28,1.79ZM50.05,93.93l-24.13-7.96c-1.76-.58-3.44-1.2-4.69-2.64s-2.49-3.36-2.5-5.45l-.06-49.76c-1.72.98-2.69,2.79-2.69,4.86l-.04,50.09c0,3.59,2.31,6.35,5.82,6.85l28.27,4.01ZM97.78,90.03c3.83-.54,6.31-3.16,6.31-6.95l-.07-50.8c0-1.78-1.34-3.28-2.66-4.15l-.16,49.96c0,3.1-2.51,6.26-5.27,7.17l-26.2,8.7,28.06-3.93ZM43.51,95.26l-22.62-3.29c-4.46-.65-7.2-4.67-7.2-9.09l.03-50.12c0-.63.27-1.04.1-1.69-2.01-.07-4.45,1.6-4.45,3.96v56.37c0,2.57,2.29,4.15,4.61,4.15h29.53c.46,0,.83.21,1.3-.02-.39-.29-.81-.19-1.31-.26ZM76.62,95.55l29.99-.05c2.26,0,4.05-2.02,4.05-4.3l.04-55.32c0-2.69-1.73-4.84-4.45-4.83l.06,52.02c0,4.74-3.12,8.38-7.81,9.05l-21.83,3.1c-.51.07-.9-.09-1.29.33.44.17.68,0,1.24,0ZM65.06,97.77h-10.11c2.88,2.59,7.24,2.61,10.11,0Z"/>
    <path class="cls-3" d="M61.87,29.3l.76-.03,2.22.57c-2.3,1.37-3.79,3.78-3.71,6.66v39.09c0,.79-.39,1.31-1.04,1.34-.57.03-1.24-.34-1.24-1.13v-39.3c.09-2.77-1.21-5.07-3.42-6.51l2.55-.84c.81.72,1.37,1.54,2.04,2.61.53-1,1.11-1.77,1.83-2.46Z"/>
    <path class="cls-7" d="M55.44,29.98c2.2,1.44,3.5,3.74,3.43,6.51v39.3c-.01.79.66,1.16,1.23,1.13.66-.04,1.04-.55,1.04-1.34v-39.09c-.08-2.88,1.42-5.29,3.71-6.66l28.84-9.44c2.22-.73,5.3,1.21,5.3,3.78l.04,53.48c0,3.06-2.58,5.24-5.29,6.13l-29.93,9.77c-1.05.34-1.96.71-2.75,1.28l.08-12.95c0-.75-.38-1.18-1.05-1.27-.47-.06-1.2.36-1.2,1.06l.04,13.14c-.87-.64-1.9-.99-3.07-1.38l-30.34-9.97c-3.11-1.02-4.62-3.87-4.61-7.04l.07-52.06c0-1.47,1.12-2.74,2.04-3.37,1.29-.88,2.7-.88,4.15-.4l28.28,9.39ZM54.58,82.35l-.08-42.3c0-3.34-2.4-6.08-5.38-7.05l-19.29-6.32c-1.16-.38-2.24-.1-3.13.55-.81.59-1.37,1.6-1.37,2.83l.07,43.26c0,3,2.31,5.75,5.04,6.65l19.12,6.33c1.39.46,2.62.4,3.68-.47s1.35-1.86,1.34-3.48ZM70.26,86.36l18.85-6.23c2.77-.92,5.49-3.4,5.5-6.62l.09-43.75c0-1.14-.83-2.14-1.51-2.63-1-.72-2.06-.77-3.2-.4l-14.17,4.68-5.54,1.86c-2.93,1.19-4.81,4.12-4.81,7.39v42.97c.52,2.25,2.57,3.53,4.79,2.73Z"/>
    <path class="cls-12" d="M43.51,95.26c.5.07.92-.03,1.31.26-.47.23-.84.01-1.3.01H13.99c-2.32,0-4.61-1.57-4.61-4.14v-56.37c0-2.36,2.43-4.03,4.44-3.96.17.66-.09,1.06-.1,1.69l-.03,50.12c0,4.41,2.74,8.44,7.2,9.09l22.62,3.29Z"/>
    <path class="cls-2" d="M76.62,95.55c-.55,0-.8.18-1.24,0,.39-.42.78-.25,1.29-.33l21.83-3.1c4.68-.67,7.81-4.31,7.81-9.05l-.06-52.02c2.72-.02,4.45,2.13,4.45,4.83l-.04,55.32c0,2.28-1.78,4.3-4.05,4.3l-29.99.05Z"/>
    <path class="cls-11" d="M97.78,90.03l-28.06,3.93,26.2-8.7c2.76-.92,5.26-4.07,5.27-7.17l.16-49.96c1.33.86,2.66,2.37,2.66,4.15l.07,50.8c0,3.8-2.47,6.41-6.31,6.95Z"/>
    <path class="cls-8" d="M50.05,93.93l-28.27-4.01c-3.51-.5-5.82-3.26-5.82-6.85l.04-50.09c0-2.07.96-3.88,2.69-4.86l.06,49.76c0,2.09,1.24,4.02,2.5,5.45s2.93,2.06,4.69,2.64l24.13,7.96Z"/>
    <path class="cls-1" d="M61.07,94.82l-1.07.77-1.06-.78-.04-13.14c0-.7.73-1.12,1.2-1.06.67.09,1.05.52,1.05,1.27l-.08,12.95Z"/>
    <path class="cls-10" d="M65.06,97.77c-2.87,2.61-7.23,2.59-10.11,0h10.11Z"/>
    <path class="cls-5" d="M54.58,82.35c0,1.62-.29,2.62-1.34,3.48s-2.29.93-3.68.47l-19.12-6.33c-2.73-.9-5.03-3.66-5.04-6.65l-.07-43.26c0-1.23.55-2.24,1.37-2.83.89-.65,1.97-.93,3.13-.55l19.29,6.32c2.98.98,5.37,3.72,5.38,7.05l.08,42.3Z"/>
    <path class="cls-13" d="M70.26,86.36c-2.22.8-4.27-.48-4.79-2.73v-42.97c0-3.26,1.88-6.2,4.81-7.39l5.54-1.86,14.17-4.68c1.14-.38,2.2-.32,3.2.4.68.49,1.51,1.49,1.51,2.63l-.09,43.75c0,3.22-2.73,5.7-5.5,6.62l-18.85,6.23ZM87.92,63l-3.03-2.96c2.32-3.31,1.6-7.45-1.36-9.93s-7.22-2.11-9.83.72c-2.53,2.73-2.66,6.96-.08,9.79,2.47,2.72,6.57,3.29,9.74.95l2.92,2.99c.53.54,1.21.76,1.76.27s.49-1.24-.11-1.82Z"/>
    <path class="cls-4" d="M87.92,63c.6.59.65,1.34.11,1.82s-1.23.27-1.76-.27l-2.92-2.99c-3.17,2.34-7.27,1.77-9.74-.95-2.57-2.83-2.44-7.06.08-9.79,2.61-2.83,6.97-3.11,9.83-.72s3.69,6.61,1.36,9.93l3.03,2.96ZM78.55,50.76c-2.91.29-4.84,2.88-4.54,5.58s2.72,4.73,5.47,4.47c2.71-.26,4.8-2.67,4.54-5.48-.24-2.61-2.59-4.86-5.47-4.57Z"/>
    <path class="cls-6" d="M78.55,50.76c2.88-.29,5.23,1.97,5.47,4.57.26,2.8-1.83,5.22-4.54,5.48-2.75.26-5.17-1.74-5.47-4.47s1.63-5.29,4.54-5.58Z"/>
  </g>
</svg>